<svg width="50" height="36" viewBox="0 0 50 36" fill="none" xmlns="http://www.w3.org/2000/svg">
<path d="M17.3853 0.612282C7.80003 0.612282 0 8.41311 0 17.9999C0 27.5867 7.80003 35.3867 17.3853 35.3867C26.7392 35.3867 34.3716 27.9565 34.7382 18.6891H46.4824L38.1867 26.988C37.8279 27.3459 37.8279 27.9281 38.1867 28.2869C38.5454 28.6449 39.1268 28.6449 39.4856 28.2869L49.3501 18.4208L50 17.7702L49.3501 17.1211C49.3501 17.1195 49.3501 17.1195 49.3501 17.1195L39.4864 7.25655C39.1276 6.89779 38.5462 6.89779 38.1874 7.25655C37.8287 7.61611 37.8287 8.19674 38.1874 8.55551L46.4816 16.8512H34.7162C34.1167 7.79864 26.5826 0.612282 17.3853 0.612282ZM17.3853 33.5488C8.81182 33.5488 1.83789 26.5749 1.83789 17.9999C1.83789 9.42489 8.81182 2.45018 17.3853 2.45018C25.5724 2.45018 32.2827 8.81278 32.8752 16.8512L18.3459 16.8512C17.8384 16.8512 17.4269 17.2627 17.4269 17.7702C17.4269 18.2768 17.8384 18.6883 18.3459 18.6883L32.8956 18.6883C32.5345 26.9415 25.7266 33.5488 17.3853 33.5488Z" fill="#1B79CF"/>
</svg>
